<?xml version="1.0" encoding="UTF-8" standalone="no"?>
<svg
        xmlns:dc="http://purl.org/dc/elements/1.1/"
        xmlns:cc="http://creativecommons.org/ns#"
        xmlns:rdf="http://www.w3.org/1999/02/22-rdf-syntax-ns#"
        xmlns:sodipodi="http://sodipodi.sourceforge.net/DTD/sodipodi-0.dtd"
        xmlns:inkscape="http://www.inkscape.org/namespaces/inkscape"
        xmlns="http://www.w3.org/2000/svg"
        id="Layer_1"
        enable-background="new 0 0 511 511"
        height="687.43127"
        viewBox="0 0 686.64267 686.08864"
        width="687.98639"
        version="1.1"
        sodipodi:docname="virus — kopia.svg"
        inkscape:version="0.92.4 (5da689c313, 2019-01-14)">
    <metadata
            id="metadata85">
        <rdf:RDF>
            <cc:Work
                    rdf:about="">
                <dc:format>image/svg+xml</dc:format>
                <dc:type
                        rdf:resource="http://purl.org/dc/dcmitype/StillImage"/>
                <dc:title></dc:title>
            </cc:Work>
        </rdf:RDF>
    </metadata>
    <defs
            id="defs83"/>
    <sodipodi:namedview
            pagecolor="#ffffff"
            bordercolor="#666666"
            borderopacity="1"
            objecttolerance="10"
            gridtolerance="10"
            guidetolerance="10"
            inkscape:pageopacity="0"
            inkscape:pageshadow="2"
            inkscape:window-width="3840"
            inkscape:window-height="2066"
            id="namedview81"
            showgrid="false"
            inkscape:zoom="1.3037281"
            inkscape:cx="872.11043"
            inkscape:cy="411.6072"
            inkscape:window-x="-11"
            inkscape:window-y="-11"
            inkscape:window-maximized="1"
            inkscape:current-layer="g4649"
            fit-margin-top="0"
            fit-margin-left="0"
            fit-margin-right="0"
            fit-margin-bottom="0"/>
    <g
            id="g4649"
            transform="translate(760.57526,352.76459)">
        <g
                id="g78"
                transform="translate(-672.75441,-265.22128)">
            <path
                    style="fill:#de3052"
                    inkscape:connector-curvature="0"
                    id="path2"
                    d="m 383.5,239.5 h 56 v 32 h -56 z"/>
            <circle
                    style="fill:#f94d66"
                    id="circle4"
                    r="32"
                    cy="255.5"
                    cx="471.5"/>
            <path
                    style="fill:#de3052"
                    inkscape:connector-curvature="0"
                    id="path6"
                    transform="rotate(180,99.5,255.5)"
                    d="m 71.5,239.5 h 56 v 32 h -56 z"/>
            <circle
                    style="fill:#f94d66"
                    id="circle8"
                    r="32"
                    cy="255.5"
                    cx="39.5"/>
            <path
                    style="fill:#de3052"
                    inkscape:connector-curvature="0"
                    id="path10"
                    transform="rotate(90,255.5,411.5)"
                    d="m 227.5,395.5 h 56 v 32 h -56 z"/>
            <circle
                    style="fill:#f94d66"
                    id="circle12"
                    r="32"
                    cy="471.5"
                    cx="255.5"/>
            <path
                    style="fill:#de3052"
                    inkscape:connector-curvature="0"
                    id="path14"
                    transform="rotate(-90,255.5,99.5)"
                    d="m 227.5,83.5 h 56 v 32 h -56 z"/>
            <circle
                    style="fill:#f94d66"
                    id="circle16"
                    r="32"
                    cy="39.5"
                    cx="255.5"/>
            <circle
                    style="fill:#f94d66"
                    id="circle18"
                    r="128"
                    cy="255.5"
                    cx="255.5"/>
            <path
                    style="fill:#de3052"
                    inkscape:connector-curvature="0"
                    id="path20"
                    d="m 255.5,127.5 c -1.362,0 -2.717,0.029 -4.069,0.071 64.454,2.075 116.069,54.971 116.069,119.929 0,66.274 -53.726,120 -120,120 -64.958,0 -117.854,-51.615 -119.929,-116.069 -0.042,1.352 -0.071,2.707 -0.071,4.069 0,70.692 57.308,128 128,128 70.692,0 128,-57.308 128,-128 0,-70.692 -57.308,-128 -128,-128 z"/>
            <g
                    style="fill:#f94d66"
                    id="g38">
                <path
                        inkscape:connector-curvature="0"
                        id="path22"
                        transform="matrix(-0.707,0.707,-0.707,-0.707,517.837,494.495)"
                        d="m 112.505,338.495 h 88 v 32 h -88 z"/>
                <circle
                        id="circle24"
                        r="32"
                        cy="408.23499"
                        cx="102.765"/>
                <path
                        inkscape:connector-curvature="0"
                        id="path26"
                        transform="matrix(0.707,-0.707,0.707,0.707,-6.837,296.505)"
                        d="m 310.495,140.505 h 88 v 32 h -88 z"/>
                <circle
                        id="circle28"
                        r="32"
                        cy="102.765"
                        cx="408.23499"/>
                <path
                        inkscape:connector-curvature="0"
                        id="path30"
                        transform="matrix(-0.707,-0.707,0.707,-0.707,156.505,377.837)"
                        d="m 112.505,140.505 h 88 v 32 h -88 z"/>
                <circle
                        id="circle32"
                        r="32"
                        cy="102.765"
                        cx="102.765"/>
                <path
                        inkscape:connector-curvature="0"
                        id="path34"
                        transform="matrix(0.707,0.707,-0.707,0.707,354.495,-146.837)"
                        d="m 310.495,338.495 h 88 v 32 h -88 z"/>
                <circle
                        id="circle36"
                        r="32"
                        cy="408.23499"
                        cx="408.23499"/>
            </g>
            <circle
                    style="fill:#fbb9d7"
                    id="circle40"
                    r="32"
                    cy="287.5"
                    cx="223.5"/>
            <path
                    style="fill:#ed9c87"
                    inkscape:connector-curvature="0"
                    id="path42"
                    d="m 223.5,255.5 c -2.762,0 -5.443,0.35 -8,1.008 13.802,3.552 24,16.081 24,30.992 0,14.911 -10.198,27.44 -24,30.992 2.557,0.658 5.238,1.008 8,1.008 17.673,0 32,-14.327 32,-32 0,-17.673 -14.327,-32 -32,-32 z"/>
            <circle
                    style="fill:#fbb9d7"
                    id="circle44"
                    r="24"
                    cy="239.5"
                    cx="303.5"/>
            <path
                    style="fill:#ed9c87"
                    inkscape:connector-curvature="0"
                    id="path46"
                    d="m 303.5,215.5 c -2.806,0 -5.497,0.486 -8,1.371 9.32,3.295 16,12.18 16,22.629 0,10.449 -6.68,19.334 -16,22.629 2.503,0.885 5.194,1.371 8,1.371 13.255,0 24,-10.745 24,-24 0,-13.255 -10.745,-24 -24,-24 z"/>
            <circle
                    style="fill:#fbb9d7"
                    id="circle48"
                    r="16"
                    cy="199.5"
                    cx="239.5"/>
            <path
                    style="fill:#ed9c87"
                    inkscape:connector-curvature="0"
                    id="path50"
                    d="m 239.5,183.5 c -2.918,0 -5.645,0.794 -8,2.158 4.778,2.768 8,7.923 8,13.842 0,5.919 -3.222,11.074 -8,13.842 2.355,1.364 5.082,2.158 8,2.158 8.837,0 16,-7.163 16,-16 0,-8.837 -7.163,-16 -16,-16 z"/>
            <g
                    id="g54">
                <path
                        style="fill:#ffffff"
                        inkscape:connector-curvature="0"
                        id="path52"
                        d="m 175.5,224 h 16 v 15 h -16 z"/>
            </g>
            <g
                    id="g76">
                <g
                        id="g70">
                    <path
                            inkscape:connector-curvature="0"
                            id="path56"
                            d="m 471.5,216 c -12.984,0 -24.522,6.299 -31.727,16 h -50.845 c -3.439,-19.447 -11.094,-38.032 -22.446,-54.248 l 35.936,-35.936 c 1.928,0.285 3.872,0.43 5.817,0.43 10.115,0 20.23,-3.85 27.931,-11.551 7.461,-7.46 11.569,-17.38 11.569,-27.931 0,-10.551 -4.108,-20.47 -11.569,-27.931 -7.46,-7.461 -17.379,-11.569 -27.931,-11.569 -10.551,0 -20.47,4.108 -27.931,11.569 -9.181,9.181 -12.886,21.794 -11.12,33.748 L 306.765,171 l 10.607,10.606 57.58,-57.581 c 1.511,2.364 3.289,4.605 5.352,6.669 2.064,2.064 4.305,3.841 6.669,5.352 l -57.581,57.581 10.606,10.606 15.705,-15.705 C 369.014,208.33 376,231.28 376,255.5 c 0,24.22 -6.986,47.17 -20.296,66.97 l -15.705,-15.705 -10.606,10.607 57.581,57.581 c -2.364,1.511 -4.605,3.288 -6.669,5.352 -2.064,2.064 -3.841,4.305 -5.352,6.669 l -57.58,-57.581 -10.607,10.606 15.705,15.705 C 302.669,369.013 279.717,376 255.5,376 c -24.217,0 -47.169,-6.986 -66.97,-20.296 l 15.705,-15.705 -10.607,-10.606 -57.58,57.581 c -1.511,-2.364 -3.288,-4.605 -5.352,-6.669 -15.401,-15.402 -40.461,-15.401 -55.861,0 -7.461,7.46 -11.569,17.38 -11.569,27.931 0,10.551 4.108,20.47 11.569,27.931 7.46,7.461 17.379,11.569 27.931,11.569 10.551,0 20.47,-4.108 27.931,-11.569 9.181,-9.181 12.886,-21.794 11.12,-33.748 l 35.936,-35.936 c 16.215,11.352 34.802,19.007 54.248,22.446 v 50.846 c -9.701,7.204 -16,18.743 -16,31.727 0,21.78 17.72,39.5 39.5,39.5 21.78,0 39.5,-17.72 39.5,-39.5 0,-12.984 -6.299,-24.522 -16,-31.727 v -50.846 c 19.447,-3.439 38.034,-11.094 54.248,-22.446 l 35.936,35.936 c -1.765,11.954 1.939,24.567 11.12,33.748 7.46,7.461 17.38,11.569 27.931,11.569 10.551,0 20.47,-4.108 27.931,-11.569 7.461,-7.46 11.569,-17.379 11.569,-27.931 0,-10.551 -4.108,-20.47 -11.569,-27.931 -9.181,-9.182 -21.794,-12.886 -33.748,-11.12 l -35.936,-35.936 c 11.352,-16.215 19.007,-34.801 22.446,-54.248 h 50.845 c 7.204,9.701 18.743,16 31.727,16 21.78,0 39.5,-17.72 39.5,-39.5 C 511.001,233.721 493.28,216 471.5,216 Z M 390.911,85.441 c 4.627,-4.627 10.78,-7.176 17.324,-7.176 6.544,0 12.697,2.548 17.324,7.176 4.627,4.627 7.176,10.78 7.176,17.324 0,6.544 -2.548,12.697 -7.176,17.324 -9.553,9.552 -25.096,9.552 -34.648,0 -9.553,-9.552 -9.553,-25.096 0,-34.648 z M 120.089,425.559 c -4.628,4.627 -10.78,7.176 -17.324,7.176 -6.544,0 -12.697,-2.548 -17.324,-7.176 -4.627,-4.628 -7.176,-10.78 -7.176,-17.324 0,-6.544 2.548,-12.697 7.176,-17.324 4.777,-4.777 11.049,-7.164 17.324,-7.164 6.273,0 12.548,2.389 17.324,7.164 9.553,9.552 9.553,25.096 0,34.648 z M 255.5,496 c -13.509,0 -24.5,-10.991 -24.5,-24.5 0,-13.509 10.991,-24.5 24.5,-24.5 13.509,0 24.5,10.991 24.5,24.5 0,13.509 -10.991,24.5 -24.5,24.5 z m 8.5,-63.069 c -2.74,-0.603 -5.582,-0.931 -8.5,-0.931 -2.918,0 -5.76,0.328 -8.5,0.931 v -42.202 c 2.825,0.179 5.66,0.271 8.5,0.271 2.84,0 5.675,-0.091 8.5,-0.271 z m 161.559,-42.02 c 4.627,4.627 7.176,10.78 7.176,17.324 0,6.544 -2.548,12.697 -7.176,17.324 -4.628,4.627 -10.78,7.176 -17.324,7.176 -6.544,0 -12.697,-2.548 -17.324,-7.176 -9.552,-9.552 -9.552,-25.096 0,-34.648 4.777,-4.777 11.05,-7.164 17.324,-7.164 6.273,0 12.548,2.388 17.324,7.164 z M 390.729,264 c 0.179,-2.825 0.271,-5.66 0.271,-8.5 0,-2.84 -0.092,-5.675 -0.271,-8.5 h 42.202 c -0.604,2.74 -0.931,5.582 -0.931,8.5 0,2.918 0.328,5.76 0.931,8.5 z m 80.771,16 c -13.509,0 -24.5,-10.991 -24.5,-24.5 0,-13.509 10.991,-24.5 24.5,-24.5 13.509,0 24.5,10.991 24.5,24.5 0,13.509 -10.991,24.5 -24.5,24.5 z"/>
                    <path
                            inkscape:connector-curvature="0"
                            id="path58"
                            d="m 71.227,279 h 50.845 c 3.407,19.269 10.958,37.69 22.14,53.8 l -21.939,21.322 10.454,10.757 48.804,-47.432 -10.454,-10.757 -15.956,15.507 C 141.929,302.459 135,279.61 135,255.5 c 0,-24.217 6.986,-47.169 20.296,-66.97 l 15.705,15.705 10.606,-10.606 -57.581,-57.581 c 2.364,-1.511 4.605,-3.289 6.669,-5.352 2.064,-2.064 3.841,-4.305 5.352,-6.669 l 57.58,57.581 10.607,-10.606 -15.704,-15.705 c 19.8,-13.31 42.75,-20.296 66.97,-20.296 19.323,0 37.776,4.433 54.847,13.175 l 6.838,-13.351 C 305.028,128.599 292.25,124.322 279,122.016 V 71.227 C 288.701,64.023 295,52.484 295,39.5 295,17.72 277.28,0 255.5,0 233.72,0 216,17.72 216,39.5 c 0,12.984 6.299,24.522 16,31.727 v 50.845 c -19.447,3.439 -38.032,11.094 -54.248,22.447 l -35.936,-35.936 c 1.765,-11.954 -1.939,-24.567 -11.12,-33.748 -7.46,-7.461 -17.38,-11.569 -27.931,-11.569 -10.551,0 -20.47,4.108 -27.931,11.569 -7.461,7.46 -11.569,17.379 -11.569,27.931 0,10.551 4.108,20.47 11.569,27.931 7.7,7.701 17.815,11.551 27.93,11.551 1.945,0 3.89,-0.146 5.818,-0.43 l 35.936,35.936 c -11.352,16.214 -19.007,34.801 -22.446,54.248 H 71.227 c -7.204,-9.701 -18.743,-16 -31.727,-16 C 17.72,216 0,233.72 0,255.5 0,277.28 17.72,295 39.5,295 c 12.984,0 24.522,-6.299 31.727,-16 z M 255.5,15 C 269.009,15 280,25.991 280,39.5 280,53.009 269.009,64 255.5,64 241.991,64 231,53.009 231,39.5 231,25.991 241.991,15 255.5,15 Z M 247,78.069 c 2.74,0.603 5.582,0.931 8.5,0.931 2.918,0 5.76,-0.328 8.5,-0.931 v 42.194 c -2.816,-0.172 -5.649,-0.263 -8.5,-0.263 -2.84,0 -5.675,0.091 -8.5,0.271 z m -161.559,42.02 c -4.627,-4.628 -7.176,-10.78 -7.176,-17.324 0,-6.544 2.548,-12.697 7.176,-17.324 4.627,-4.627 10.78,-7.176 17.324,-7.176 6.544,0 12.697,2.548 17.324,7.176 9.552,9.552 9.552,25.096 0,34.648 -9.552,9.553 -25.095,9.552 -34.648,0 z M 120.271,247 c -0.179,2.825 -0.271,5.66 -0.271,8.5 0,2.84 0.091,5.675 0.271,8.5 H 78.069 C 78.672,261.26 79,258.418 79,255.5 79,252.582 78.672,249.74 78.069,247 Z M 39.5,280 C 25.991,280 15,269.009 15,255.5 15,241.991 25.991,231 39.5,231 53.009,231 64,241.991 64,255.5 64,269.009 53.009,280 39.5,280 Z"/>
                    <path
                            inkscape:connector-curvature="0"
                            id="path60"
                            d="m 223.5,248 c -21.78,0 -39.5,17.72 -39.5,39.5 0,21.78 17.72,39.5 39.5,39.5 21.78,0 39.5,-17.72 39.5,-39.5 0,-21.78 -17.72,-39.5 -39.5,-39.5 z m 0,64 c -13.509,0 -24.5,-10.991 -24.5,-24.5 0,-13.509 10.991,-24.5 24.5,-24.5 13.509,0 24.5,10.991 24.5,24.5 0,13.509 -10.991,24.5 -24.5,24.5 z"/>
                    <path
                            inkscape:connector-curvature="0"
                            id="path62"
                            d="m 303.5,271 c 17.369,0 31.5,-14.131 31.5,-31.5 0,-17.369 -14.131,-31.5 -31.5,-31.5 -17.369,0 -31.5,14.131 -31.5,31.5 0,17.369 14.131,31.5 31.5,31.5 z m 0,-48 c 9.098,0 16.5,7.402 16.5,16.5 0,9.098 -7.402,16.5 -16.5,16.5 -9.098,0 -16.5,-7.402 -16.5,-16.5 0,-9.098 7.402,-16.5 16.5,-16.5 z"/>
                    <path
                            inkscape:connector-curvature="0"
                            id="path64"
                            d="m 239.5,176 c -12.958,0 -23.5,10.542 -23.5,23.5 0,12.958 10.542,23.5 23.5,23.5 12.958,0 23.5,-10.542 23.5,-23.5 0,-12.958 -10.542,-23.5 -23.5,-23.5 z m 0,32 c -4.687,0 -8.5,-3.813 -8.5,-8.5 0,-4.687 3.813,-8.5 8.5,-8.5 4.687,0 8.5,3.813 8.5,8.5 0,4.687 -3.813,8.5 -8.5,8.5 z"/>
                    <path
                            inkscape:connector-curvature="0"
                            id="path66"
                            d="m 159.5,240 h 16 v 15 h -16 z"/>
                    <path
                            inkscape:connector-curvature="0"
                            id="path68"
                            d="m 343.5,264 h 16 v 15 h -16 z"/>
                </g>
                <g
                        id="g74">
                    <path
                            style="fill:#ffffff"
                            inkscape:connector-curvature="0"
                            id="path72"
                            d="m 327.5,280 h 16 v 15 h -16 z"/>
                </g>
            </g>
        </g>
        <path
                style="fill:#f50000;fill-opacity:1;stroke:#0f0000;stroke-width:6.12426376;stroke-miterlimit:4;stroke-dasharray:none;stroke-opacity:1"
                d="m -444.13962,329.70385 c -95.2339,-8.25495 -180.22169,-53.54814 -239.36822,-127.56834 -65.55768,-82.04358 -89.35111,-190.708816 -64.16538,-293.045028 12.78859,-51.963342 37.80224,-100.543602 72.52688,-140.858072 8.54462,-9.92009 27.19502,-28.49669 36.94411,-36.79791 52.38684,-44.60664 114.4821,-71.31161 185.26232,-79.67473 16.16275,-1.90972 55.00317,-1.91111 71.19122,-0.003 32.72533,3.85832 60.3699,10.63131 88.41906,21.66292 116.00636,45.62474 197.189924,149.53834 213.543264,273.331808 5.4889,41.550467 2.84237,85.65795 -7.6159,126.928117 C -116.24853,187.51247 -201.26119,278.06121 -313.34772,314.3392 c -20.5393,6.64777 -42.75711,11.42703 -66.48713,14.30203 -12.16417,1.47373 -51.97282,2.13156 -64.30477,1.06262 z m 55.27504,-37.07167 c 96.24965,-9.22059 182.0974,-63.22054 231.85866,-145.84371 56.82442,-94.350735 57.809344,-212.200082 2.57577,-308.19647 -8.89019,-15.45123 -24.33309,-36.74362 -36.4773,-50.29423 l -3.28566,-3.66618 L -408.54235,-0.94030662 -622.89157,213.4878 l 4.21043,3.79987 c 29.32435,26.46493 67.22826,48.26937 106.40908,61.21245 24.87132,8.21604 43.33055,11.92662 73.49116,14.77282 8.16753,0.77075 39.36218,0.37031 49.91632,-0.64076 z m 173.23654,-529.07073 c -46.51333,-41.75629 -106.52566,-68.27959 -170.71385,-75.44941 -12.08964,-1.35041 -49.82426,-1.35727 -62.00817,-0.0113 -55.4729,6.1283 -107.86397,26.59864 -150.72285,58.89073 -13.21896,9.95984 -21.07664,16.84634 -33.77667,29.60201 -23.07647,23.17756 -41.00249,48.02073 -55.55764,76.99582 -27.80599,55.353617 -38.14352,117.137977 -29.71601,177.603653 8.15314,58.497076 32.40846,112.189207 70.94786,157.051717 l 6.56822,7.64586 214.40339,-214.446417 214.40339,-214.446453 z"
                id="path4717"
                inkscape:connector-curvature="0"/>
    </g>
</svg>
